#!OML:ASF I:\Actors\actors\Patient Classification 2\Patient 1\Session 1\actor1.ASF
:FULLY-SPECIFIED
:DEGREES
483
root -0.706266 18.7215 5.71053 1.50279 -0.705405 -1.36812
lowerback 8.06252 1.34796 8.88862
upperback -2.74178 2.89035 1.62053
thorax -7.10858 1.05271 -3.66978
lowerneck -8.9323 -9.88436 -6.85478
upperneck 3.57089 -12.7102 4.77907
head 3.58726 -6.23647 1.95755
rclavicle 5.46658e-015 -1.11319e-014
rhumerus 15.1225 -4.51581 -37.55
rradius 99.1035
rwrist 6.09007
rhand -25.8232 -36.0689
rfingers 7.12502
rthumb 0.716492 -66.0474
lclavicle 5.46658e-015 -1.11319e-014
lhumerus -58.6843 -10.3253 95.1091
lradius 74.0438
lwrist -1.09798
lhand -7.22843 -22.4161
lfingers 7.12502
lthumb 18.6511 6.70971
rfemur 0 0 0
rtibia 0
rfoot 0 0
rtoes 0
lfemur -5.07433 -2.35304 -12.2522
ltibia 21.1367
lfoot -19.9556 9.82701
ltoes -56.3336
484
root -0.709875 18.7215 5.71139 1.50462 -0.674221 -1.34804
lowerback 8.04468 1.35984 8.7809
upperback -2.66764 2.88769 1.62855
thorax -7.02277 1.06246 -3.59915
lowerneck -9.1377 -9.90891 -6.80623
upperneck 3.53892 -12.7311 4.7483
head 3.60967 -6.24379 1.92823
rclavicle 9.52924e-015 -2.38542e-015
rhumerus 14.4223 -4.1115 -37.7561
rradius 99.4936
rwrist 6.0972
rhand -25.5511 -36.0673
rfingers 7.12502
rthumb 0.979281 -66.0448
lclavicle 9.52924e-015 -2.38542e-015
lhumerus -58.5426 -10.4724 95.1393
lradius 74.0831
lwrist -1.0529
lhand -7.22 -22.404
lfingers 7.12502
lthumb 18.6592 6.72106
rfemur 0 0 0
rtibia 0
rfoot 0 0
rtoes 0
lfemur -5.0795 -2.31082 -12.2559
ltibia 21.1276
lfoot -19.8969 9.78331
ltoes -56.3428
485
root -0.711196 18.7217 5.71161 1.52105 -0.663456 -1.33252
lowerback 8.01452 1.35501 8.68961
upperback -2.60082 2.86476 1.65068
thorax -6.94056 1.06138 -3.51979
lowerneck -9.42767 -9.93865 -6.77721
upperneck 3.65834 -12.7521 4.65761
head 3.69828 -6.25239 1.87497
rclavicle 9.75287e-015 1.11319e-014
rhumerus 13.9104 -3.73212 -37.8652
rradius 99.8463
rwrist 6.08171
rhand -25.4346 -36.1328
rfingers 7.12502
rthumb 1.09186 -66.1098
lclavicle 9.75287e-015 1.11319e-014
lhumerus -58.2939 -10.5197 95.1812
lradius 74.038
lwrist -1.05489
lhand -7.15472 -22.3841
lfingers 7.12502
lthumb 18.722 6.73489
rfemur 0 0 0
rtibia 0
rfoot 0 0
rtoes 0
lfemur -5.08915 -2.34432 -12.2694
ltibia 21.1241
lfoot -19.9271 9.78982
ltoes -56.2323
486
root -0.712554 18.7209 5.7123 1.51699 -0.699695 -1.38846
lowerback 8.0387 1.35588 8.67051
upperback -2.58216 2.86837 1.69712
thorax -6.9371 1.06571 -3.46113
lowerneck -9.61003 -9.97408 -6.72863
upperneck 3.8296 -12.7861 4.48578
head 3.77681 -6.27222 1.79448
rclavicle -1.72321e-014 1.43125e-014
rhumerus 13.4972 -3.41575 -37.8537
rradius 100.145
rwrist 6.05603
rhand -25.6206 -35.9348
rfingers 7.12502
rthumb 0.912218 -65.9126
lclavicle -1.72321e-014 1.43125e-014
lhumerus -58.0564 -10.502 95.2537
lradius 73.904
lwrist -1.09403
lhand -7.12589 -22.447
lfingers 7.12502
lthumb 18.7497 6.66935
rfemur 0 0 0
rtibia 0
rfoot 0 0
rtoes 0
lfemur -5.07188 -2.32229 -12.2087
ltibia 21.122
lfoot -19.9389 9.8335
ltoes -56.275
487
root -0.714878 18.7188 5.71449 1.47021 -0.731028 -1.45777
lowerback 8.1187 1.35506 8.64904
upperback -2.58188 2.87699 1.74296
thorax -6.9852 1.06974 -3.40491
lowerneck -9.73323 -10.0123 -6.68003
upperneck 3.97044 -12.831 4.3698
head 3.83892 -6.29622 1.73493
rclavicle 2.82026e-015 -4.77083e-015
rhumerus 13.2514 -3.32069 -37.803
rradius 100.373
rwrist 6.10453
rhand -25.8457 -35.6444
rfingers 7.12502
rthumb 0.694809 -65.623
lclavicle 2.82026e-015 -4.77083e-015
lhumerus -58.0277 -10.5354 95.2923
lradius 73.9148
lwrist -1.07867
lhand -7.13643 -22.5285
lfingers 7.12502
lthumb 18.7396 6.58882
rfemur 0 0 0
rtibia 0
rfoot 0 0
rtoes 0
lfemur -5.00593 -2.30013 -12.1304
ltibia 21.1179
lfoot -19.9466 9.8263
ltoes -56.3182
488
root -0.716022 18.7178 5.71712 1.43501 -0.718527 -1.46443
lowerback 8.15905 1.34432 8.58003
upperback -2.5788 2.86018 1.7536
thorax -7.01031 1.06377 -3.35471
lowerneck -9.75261 -10.0104 -6.6083
upperneck 3.99453 -12.8357 4.35097
head 3.84374 -6.29777 1.71485
rclavicle -2.62644e-014 3.97569e-015
rhumerus 13.2496 -3.5538 -37.7497
rradius 100.542
rwrist 6.0288
rhand -26.1811 -35.6208
rfingers 7.12502
rthumb 0.3708 -65.6002
lclavicle -2.62644e-014 3.97569e-015
lhumerus -58.0896 -10.649 95.2827
lradius 74.0076
lwrist -1.03242
lhand -7.10994 -22.5944
lfingers 7.12502
lthumb 18.7651 6.52048
rfemur 0 0 0
rtibia 0
rfoot 0 0
rtoes 0
lfemur -4.94993 -2.34098 -12.1221
ltibia 21.1106
lfoot -20.0243 9.77388
ltoes -56.1592
489
root -0.715083 18.718 5.71868 1.41929 -0.69821 -1.47103
lowerback 8.18198 1.35095 8.55986
upperback -2.59268 2.86913 1.73539
thorax -7.03724 1.06705 -3.36506
lowerneck -9.53349 -9.98995 -6.57286
upperneck 3.87081 -12.8294 4.43206
head 3.76126 -6.29438 1.74987
rclavicle -9.23106e-015 -3.4191e-014
rhumerus 13.3421 -4.14707 -37.6683
rradius 100.652
rwrist 5.97295
rhand -27.1417 -35.5594
rfingers 7.12502
rthumb -0.556955 -65.5384
lclavicle -9.23106e-015 -3.4191e-014
lhumerus -58.1155 -10.8115 95.2881
lradius 74.0305
lwrist -1.03159
lhand -7.11857 -22.6299
lfingers 7.12502
lthumb 18.7568 6.48575
rfemur 0 0 0
rtibia 0
rfoot 0 0
rtoes 0
lfemur -4.91659 -2.39173 -12.1192
ltibia 21.092
lfoot -20.0399 9.76853
ltoes -56.1152
490
root -0.713073 18.7181 5.71988 1.38153 -0.686997 -1.49195
lowerback 8.25371 1.34968 8.55818
upperback -2.6061 2.87732 1.75219
thorax -7.09317 1.06865 -3.35039
lowerneck -9.40614 -10.0118 -6.65721
upperneck 3.87148 -12.8609 4.48325
head 3.75058 -6.31137 1.78434
rclavicle -2.24999e-014 -3.73715e-014
rhumerus 13.6638 -5.03152 -37.5441
rradius 100.591
rwrist 6.23272
rhand -28.4928 -34.8542
rfingers 7.12502
rthumb -1.86187 -64.8258
lclavicle -2.24999e-014 -3.73715e-014
lhumerus -58.1446 -10.8649 95.3207
lradius 74.0642
lwrist -1.02717
lhand -7.12951 -22.5652
lfingers 7.12502
lthumb 18.7463 6.55146
rfemur 0 0 0
rtibia 0
rfoot 0 0
rtoes 0
lfemur -4.85458 -2.45563 -12.1039
ltibia 21.0576
lfoot -19.9713 9.80414
ltoes -56.1978
491
root -0.710985 18.7172 5.72146 1.34131 -0.690558 -1.49203
lowerback 8.37359 1.33522 8.52276
upperback -2.61126 2.87047 1.791
thorax -7.17224 1.0641 -3.29346
lowerneck -9.42999 -10.0543 -6.7708
upperneck 3.95914 -12.9053 4.48217
head 3.79861 -6.33484 1.79591
rclavicle -1.56791e-014 4.77083e-015
rhumerus 14.3231 -6.16216 -37.4797
rradius 100.299
rwrist 7.03993
rhand -29.9315 -35.5404
rfingers 7.12502
rthumb -3.25134 -65.4954
lclavicle -1.56791e-014 4.77083e-015
lhumerus -58.1441 -10.8144 95.3519
lradius 74.1076
lwrist -0.973816
lhand -7.04146 -22.43
lfingers 7.12502
lthumb 18.8309 6.67847
rfemur 0 0 0
rtibia 0
rfoot 0 0
rtoes 0
lfemur -4.77576 -2.54647 -12.1139
ltibia 21.0133
lfoot -19.9635 9.82036
ltoes -56.1649
492
root -0.709585 18.7165 5.72294 1.3458 -0.703758 -1.49724
lowerback 8.55893 1.33851 8.51994
upperback -2.69835 2.90166 1.79577
thorax -7.37042 1.06843 -3.29955
lowerneck -9.26179 -10.0802 -6.86208
upperneck 3.92898 -12.9464 4.57189
head 3.77386 -6.35583 1.84621
rclavicle 1.78409e-014 1.27222e-014
rhumerus 15.0434 -7.40656 -37.5131
rradius 99.8166
rwrist 8.3856
rhand -31.2501 -36.1717
rfingers 7.12502
rthumb -4.52459 -66.1033
lclavicle 1.78409e-014 1.27222e-014
lhumerus -58.2555 -10.8316 95.3811
lradius 74.1423
lwrist -0.936791
lhand -6.97243 -22.3951
lfingers 7.12502
lthumb 18.8973 6.70692
rfemur 0 0 0
rtibia 0
rfoot 0 0
rtoes 0
lfemur -4.74134 -2.55227 -12.1112
ltibia 20.9663
lfoot -19.9579 9.80197
ltoes -56.1586
493
root -0.70898 18.7169 5.72479 1.36571 -0.73941 -1.52449
lowerback 8.78354 1.35129 8.54653
upperback -2.85227 2.95829 1.802
thorax -7.66037 1.07792 -3.32673
lowerneck -8.9995 -10.089 -6.92605
upperneck 3.91546 -12.9727 4.62556
head 3.73058 -6.37208 1.88568
rclavicle 1.37161e-014 1.51076e-014
rhumerus 15.7454 -8.55832 -37.4841
rradius 99.1122
rwrist 10.064
rhand -32.6815 -36.5568
rfingers 7.12502
rthumb -5.90673 -66.4545
lclavicle 1.37161e-014 1.51076e-014
lhumerus -58.4753 -10.8879 95.42
lradius 74.1718
lwrist -0.9539
lhand -6.92786 -22.4272
lfingers 7.12502
lthumb 18.9402 6.67064
rfemur 0 0 0
rtibia 0
rfoot 0 0
rtoes 0
lfemur -4.71714 -2.53748 -12.0841
ltibia 20.9208
lfoot -19.956 9.84241
ltoes -56.185
494
root -0.706901 18.7175 5.72768 1.36136 -0.788244 -1.57711
lowerback 8.94329 1.34975 8.61809
upperback -2.96019 2.99296 1.83449
thorax -7.86568 1.07999 -3.34485
lowerneck -8.735 -10.0669 -6.9476
upperneck 3.85547 -12.958 4.64002
head 3.66083 -6.36898 1.9098
rclavicle 2.49226e-014 1.35174e-014
rhumerus 16.5002 -9.46669 -37.232
rradius 98.2524
rwrist 11.8349
rhand -33.825 -37.0299
rfingers 7.12502
rthumb -7.01064 -66.8938
lclavicle 2.49226e-014 1.35174e-014
lhumerus -58.6923 -10.9411 95.4307
lradius 74.2341
lwrist -0.960843
lhand -6.91583 -22.4743
lfingers 7.12502
lthumb 18.9518 6.62247
rfemur 0 0 0
rtibia 0
rfoot 0 0
rtoes 0
lfemur -4.66039 -2.66698 -12.0495
ltibia 20.8829
lfoot -20.0561 9.98421
ltoes -56.1091
495
root -0.702776 18.7183 5.73218 1.36936 -0.856252 -1.63377
lowerback 9.00343 1.34579 8.7373
upperback -3.02525 3.01621 1.86706
thorax -7.96621 1.07986 -3.3831
lowerneck -8.5632 -10.0536 -6.90896
upperneck 3.8202 -12.9523 4.5959
head 3.60786 -6.36996 1.89865
rclavicle 3.16565e-014 4.21423e-014
rhumerus 17.1909 -9.89157 -36.6412
rradius 97.3701
rwrist 13.6059
rhand -34.2103 -37.3171
rfingers 7.12502
rthumb -7.38257 -67.1683
lclavicle 3.16565e-014 4.21423e-014
lhumerus -58.8503 -10.9518 95.4108
lradius 74.2519
lwrist -0.978134
lhand -6.92544 -22.5785
lfingers 7.12502
lthumb 18.9425 6.51908
rfemur 0 0 0
rtibia 0
rfoot 0 0
rtoes 0
lfemur -4.61141 -2.80483 -12.0226
ltibia 20.8527
lfoot -20.1657 10.1508
ltoes -56.104
496
root -0.699107 18.7187 5.73764 1.40235 -0.993327 -1.68623
lowerback 8.99422 1.36812 8.85487
upperback -3.06044 3.06501 1.90864
thorax -7.99125 1.09667 -3.41125
lowerneck -8.61893 -10.0767 -6.79718
upperneck 3.9897 -12.9798 4.35108
head 3.64854 -6.39016 1.79066
rclavicle -2.54693e-014 -2.14687e-014
rhumerus 17.7594 -9.81964 -35.6763
rradius 96.5169
rwrist 14.757
rhand -34.4774 -37.2762
rfingers 7.12502
rthumb -7.64033 -67.1182
lclavicle -2.54693e-014 -2.14687e-014
lhumerus -58.8047 -10.8679 95.4114
lradius 74.11
lwrist -1.07242
lhand -6.84411 -22.5742
lfingers 7.12502
lthumb 19.0207 6.51572
rfemur 0 0 0
rtibia 0
rfoot 0 0
rtoes 0
lfemur -4.56886 -2.81801 -11.9933
ltibia 20.8204
lfoot -20.241 10.3041
ltoes -56.18
497
root -0.69686 18.7184 5.7418 1.43056 -1.15248 -1.7138
lowerback 8.96055 1.41604 8.94888
upperback -3.05316 3.13831 1.94175
thorax -7.95293 1.1304 -3.43715
lowerneck -8.66204 -10.089 -6.70543
upperneck 4.08529 -12.9939 4.17489
head 3.6678 -6.40174 1.71211
rclavicle -1.98039e-014 6.36111e-015
rhumerus 18.1134 -9.4053 -34.3786
rradius 95.8287
rwrist 15.5548
rhand -34.8571 -37.3534
rfingers 7.12502
rthumb -8.00682 -67.1817
lclavicle -1.98039e-014 6.36111e-015
lhumerus -58.6551 -10.8196 95.4108
lradius 73.9346
lwrist -1.15225
lhand -6.7901 -22.4161
lfingers 7.12502
lthumb 19.0727 6.66871
rfemur 0 0 0
rtibia 0
rfoot 0 0
rtoes 0
lfemur -4.51652 -2.81693 -11.9826
ltibia 20.785
lfoot -20.3454 10.4187
ltoes -56.0911
498
root -0.696293 18.7187 5.74282 1.4409 -1.26487 -1.68325
lowerback 8.90752 1.44432 9.05143
upperback -2.98594 3.1746 1.91175
thorax -7.83823 1.14923 -3.52775
lowerneck -8.74637 -10.1102 -6.61574
upperneck 4.10026 -13.0245 4.13628
head 3.67987 -6.41551 1.67748
rclavicle -2.81529e-014 -1.66979e-014
rhumerus 18.3321 -8.90809 -32.9803
rradius 95.3052
rwrist 16.3444
rhand -35.1516 -37.4104
rfingers 7.12502
rthumb -8.29108 -67.2277
lclavicle -2.81529e-014 -1.66979e-014
lhumerus -58.4819 -10.8569 95.3204
lradius 73.8187
lwrist -1.2906
lhand -6.91272 -22.2459
lfingers 7.12502
lthumb 18.9548 6.85054
rfemur 0 0 0
rtibia 0
rfoot 0 0
rtoes 0
lfemur -4.47609 -2.82701 -12.0264
ltibia 20.7548
lfoot -20.4182 10.4706
ltoes -55.9647
